# xmcd CD database file
#
# Track frame offsets:
#	150
#	39818
#	132800
#	148576
#	172961
#	189699
#	233101
#	270095
#	291096
#	323517
#
# Disc length: 4726 seconds
#
# Revision: 1
# Processed by: cddbd v1.4PL0 Copyright (c) Steve Scherf et al.
# Submitted via: CDex 1.40Release
#
DISCID=7e12740a
DTITLE=Garth Brooks - Ropi'n The Wind
DYEAR=1991
DGENRE=Country
TTITLE0=Against The  Grain
TTITLE1=Rodeo
TTITLE2=what She's Doing Now
TTITLE3=Burning Briges
TTITLE4=Papa Loved Mama
TTITLE5=Shameless
TTITLE6=Cold Shoulder
TTITLE7=We Bury The Hachet
TTITLE8=In Lonesome Dove
TTITLE9=The River
EXTD=YEAR: 1991 ID3G: 2
EXTT0=
EXTT1=
EXTT2=
EXTT3=
EXTT4=
EXTT5=
EXTT6=
EXTT7=
EXTT8=
EXTT9=
PLAYORDER=
